<svg width="160" height="254" viewBox="0 0 160 254" fill="none" xmlns="http://www.w3.org/2000/svg">
<g clip-path="url(#clip0_222_4)">
<path d="M91.3175 66.0909C91.3174 65.8006 91.3747 65.5131 91.486 65.2448C91.5974 64.9765 91.7606 64.7327 91.9664 64.5274C92.1723 64.3221 92.4166 64.1593 92.6856 64.0482C92.9546 63.9371 93.2428 63.88 93.5339 63.8802H102.278C102.569 63.8797 102.857 63.9365 103.127 64.0474C103.396 64.1583 103.641 64.321 103.847 64.5264C104.053 64.7317 104.217 64.9756 104.328 65.2441C104.44 65.5125 104.498 65.8003 104.498 66.0909V66.6955H124.61V36.1809H70.2618V66.6955H91.3175V66.0909Z" fill="#3F3D56"/>
<path d="M142.097 36.1811H127.433V66.6957H139.885L142.097 36.1811Z" fill="#3F3D56"/>
<path d="M124.609 0V33.3621H106.939C97.7712 33.3608 88.9363 29.9353 82.1742 23.7605C75.4122 17.5856 71.2133 9.10892 70.4044 0H124.609Z" fill="#3F3D56"/>
<path d="M144.28 6.12081L142.301 33.3621H127.432V0H138.578C139.364 0.000401628 140.142 0.162374 140.862 0.47581C141.583 0.789245 142.231 1.24742 142.766 1.82174C143.301 2.39607 143.711 3.07422 143.972 3.81388C144.233 4.55355 144.338 5.33886 144.28 6.12081Z" fill="#3F3D56"/>
<path d="M139.199 76.0862L136.828 120.567L136.81 120.889L136.046 135.23C135.927 138.494 134.543 141.585 132.186 143.852C129.829 146.119 126.682 147.386 123.408 147.386H71.9323C69.8223 147.388 67.7455 146.862 65.8928 145.855C65.8605 145.837 65.8282 145.819 65.7996 145.805C65.4947 145.637 65.2006 145.454 64.9137 145.264C64.842 145.214 64.7703 145.168 64.6985 145.118C63.0904 144.001 61.7648 142.526 60.8268 140.81C59.8887 139.094 59.3639 137.183 59.2939 135.23L56.1414 76.0862H139.199Z" fill="#3F3D56"/>
<path d="M51.4501 11.412L53.0437 33.362H67.4358V0H62.0409C61.9931 0 61.9453 0.000214487 61.8974 0.000641382C60.4464 0.0226357 59.0153 0.340477 57.692 0.934619C56.3687 1.52876 55.1813 2.38664 54.2028 3.4555C53.2242 4.52436 52.4752 5.7816 52.0018 7.1499C51.5284 8.5182 51.3407 9.96863 51.4501 11.412Z" fill="#3F3D56"/>
<path d="M55.461 66.6957H67.4359V36.1811H53.2482L55.461 66.6957Z" fill="#3F3D56"/>
<path d="M124.523 3.2196H124.609V32.5537H124.523C120.623 32.5537 116.883 31.0084 114.126 28.2578C111.368 25.5072 109.819 21.7766 109.819 17.8866C109.819 13.9967 111.368 10.2661 114.126 7.51547C116.883 4.76487 120.623 3.2196 124.523 3.2196Z" fill="#55ACEF"/>
<path d="M139.227 17.8866C139.226 21.2731 138.051 24.5551 135.902 27.1761C133.752 29.7971 130.759 31.5959 127.432 32.2675V3.50578C130.759 4.17738 133.752 5.97617 135.902 8.59719C138.051 11.2182 139.226 14.5002 139.227 17.8866Z" fill="#55ACEF"/>
<path opacity="0.3" d="M66.3884 78.5591C68.4231 78.6545 72.6315 79.6624 77.1918 80.9654C81.7493 82.2697 86.6928 83.861 91.5733 85.435C100.117 88.188 108.66 90.9401 117.202 93.6914C118.377 94.0691 119.554 94.4501 120.735 94.8345C121.187 95.4244 121.637 96.0202 122.079 96.622C121.041 96.256 119.999 95.9019 118.959 95.5644C114.52 94.1254 110.668 93.1763 106.359 91.8671C99.7287 89.854 92.7337 87.2103 85.9495 84.7484C79.166 82.2845 71.383 79.6325 66.3884 78.5591Z" fill="#F0F0F0"/>
<path d="M96.2213 18.0382C96.7885 18.0382 97.2482 17.5796 97.2482 17.0139C97.2482 16.4481 96.7885 15.9895 96.2213 15.9895C95.6541 15.9895 95.1943 16.4481 95.1943 17.0139C95.1943 17.5796 95.6541 18.0382 96.2213 18.0382Z" fill="white"/>
<path d="M132.802 45.9414C133.37 45.9414 133.829 45.4828 133.829 44.917C133.829 44.3513 133.37 43.8927 132.802 43.8927C132.235 43.8927 131.775 44.3513 131.775 44.917C131.775 45.4828 132.235 45.9414 132.802 45.9414Z" fill="white"/>
<path d="M101.242 140.401C101.621 140.401 101.929 140.094 101.929 139.716C101.929 139.338 101.621 139.031 101.242 139.031C100.863 139.031 100.556 139.338 100.556 139.716C100.556 140.094 100.863 140.401 101.242 140.401Z" fill="white"/>
<path d="M124.554 88.8875C124.933 88.8875 125.24 88.5809 125.24 88.2027C125.24 87.8244 124.933 87.5178 124.554 87.5178C124.175 87.5178 123.867 87.8244 123.867 88.2027C123.867 88.5809 124.175 88.8875 124.554 88.8875Z" fill="white"/>
<path d="M85.1035 49.8947C85.4827 49.8947 85.7901 49.5881 85.7901 49.2098C85.7901 48.8316 85.4827 48.5249 85.1035 48.5249C84.7243 48.5249 84.4169 48.8316 84.4169 49.2098C84.4169 49.5881 84.7243 49.8947 85.1035 49.8947Z" fill="white"/>
<path d="M75.0615 106.059C75.4408 106.059 75.7482 105.752 75.7482 105.374C75.7482 104.996 75.4408 104.689 75.0615 104.689C74.6823 104.689 74.3749 104.996 74.3749 105.374C74.3749 105.752 74.6823 106.059 75.0615 106.059Z" fill="white"/>
<path d="M107.391 113.604C107.151 113.447 106.902 113.289 106.647 113.138C105.458 112.435 104.135 111.887 102.843 112.262C101.489 112.655 100.623 113.941 99.8936 115.145C95.9438 121.663 92.5181 128.483 89.6488 135.541C94.1982 131.757 95.3723 125.169 99.4273 120.861C100.113 120.133 100.986 119.435 101.986 119.48C102.792 119.515 103.484 120.021 104.195 120.401C106.068 121.401 108.261 121.567 110.38 121.712C113.313 121.915 116.246 122.116 119.18 122.318L119.184 122.271C117.106 120.559 114.978 118.913 112.801 117.333C111.028 116.044 109.225 114.801 107.391 113.604Z" fill="#F2F2F2"/>
<path d="M127.733 129.682C124.688 125.641 121.211 121.943 117.365 118.653C117.056 118.388 116.744 118.127 116.429 117.866C115.754 117.311 115.072 116.769 114.381 116.238C112.917 115.122 111.416 114.065 109.876 113.069C108.951 112.471 108.013 111.895 107.061 111.341C106.821 111.201 106.58 111.062 106.336 110.926C105.73 110.586 105.124 110.246 104.504 109.931C103.911 109.584 103.246 109.379 102.56 109.33C100.204 109.294 98.9808 111.956 98.1416 113.748C97.8798 114.313 97.6132 114.876 97.3418 115.437C96.3233 117.565 95.2641 119.673 94.1643 121.761C93.4865 123.053 92.7943 124.336 92.0877 125.611C91.0835 127.417 90.0519 129.206 88.9927 130.977C87.7231 133.102 86.4141 135.201 85.0656 137.276C82.7452 140.843 80.4391 144.113 77.9645 147.386H78.3375C81.0955 143.683 83.7147 139.889 86.1953 136.003C88.3471 132.633 90.3938 129.2 92.3352 125.704C93.2569 124.04 94.1547 122.364 95.0286 120.674C95.7028 119.361 96.3639 118.043 97.0119 116.721C97.1984 116.342 97.3777 115.963 97.557 115.58C97.9802 114.682 98.3926 113.78 98.8373 112.897C99.343 111.892 99.9563 110.833 100.889 110.157C101.311 109.836 101.816 109.641 102.345 109.595C103.091 109.601 103.821 109.81 104.457 110.2C105.3 110.64 106.134 111.097 106.96 111.573C109.474 113.033 111.892 114.652 114.198 116.42C115.439 117.372 116.645 118.362 117.816 119.39C121.894 122.959 125.537 126.994 128.672 131.409C128.769 131.545 128.995 131.417 128.898 131.277C128.518 130.741 128.13 130.209 127.733 129.682Z" fill="#F2F2F2"/>
<path d="M134.866 119.043C133.525 118.048 132.136 117.123 130.699 116.267C129.982 115.837 129.257 115.43 128.518 115.036C128.296 114.918 128.07 114.804 127.844 114.693C127.328 114.431 126.79 114.214 126.237 114.042C125.456 113.789 124.629 113.707 123.813 113.802C123.025 113.916 122.265 114.178 121.575 114.575C120.108 115.394 118.971 116.657 117.867 117.891C117.844 117.916 117.831 117.949 117.832 117.983C117.833 118.017 117.846 118.049 117.87 118.073C117.881 118.087 117.895 118.097 117.91 118.105C117.926 118.112 117.943 118.116 117.96 118.116C117.977 118.116 117.994 118.112 118.01 118.105C118.025 118.097 118.039 118.087 118.05 118.073C118.19 117.923 118.322 117.769 118.462 117.619C119.549 116.417 120.714 115.233 122.21 114.546C122.921 114.206 123.699 114.027 124.487 114.02C125.3 114.041 126.102 114.215 126.851 114.532C127.206 114.675 127.554 114.836 127.898 115.007C128.289 115.204 128.676 115.415 129.056 115.626C129.777 116.023 130.487 116.437 131.187 116.868C132.582 117.726 133.931 118.652 135.236 119.644C135.77 120.048 136.294 120.459 136.81 120.889L136.828 120.567C136.186 120.041 135.532 119.533 134.866 119.043Z" fill="#F2F2F2"/>
<path d="M71.5127 136.904C73.0405 134.994 74.5814 133.093 76.1355 131.202C76.5085 130.744 76.8851 130.283 77.2653 129.828C77.5703 129.45 77.9035 129.094 78.2623 128.766C78.6129 128.437 79.0264 128.181 79.4781 128.015C79.9839 127.857 80.5246 127.85 81.0345 127.993C81.618 128.162 82.1926 128.36 82.756 128.587L84.5026 129.224L88.0137 130.504C88.0356 130.515 88.0604 130.517 88.0839 130.511C88.1075 130.505 88.1282 130.492 88.1428 130.472C88.1564 130.455 88.1657 130.435 88.17 130.413C88.1743 130.391 88.1735 130.369 88.1676 130.348C88.1616 130.327 88.1508 130.307 88.1359 130.291C88.121 130.274 88.1025 130.262 88.0818 130.254L87.1995 129.928L83.6634 128.641C83.0752 128.426 82.4906 128.208 81.9025 127.997C81.3633 127.77 80.7872 127.644 80.2025 127.625C79.2055 127.643 78.3735 128.251 77.7064 128.938C77.3442 129.313 77.0142 129.717 76.6842 130.122C76.2933 130.597 75.8988 131.077 75.5079 131.556C73.9371 133.474 72.377 135.402 70.8277 137.341C69.2784 139.28 67.7386 141.224 66.2084 143.175C65.7027 143.823 65.1994 144.47 64.6985 145.118C64.7703 145.168 64.842 145.214 64.9137 145.264C65.588 144.392 66.267 143.521 66.9508 142.653C68.4607 140.728 69.9813 138.812 71.5127 136.904Z" fill="#F2F2F2"/>
<path d="M122.671 116.055C121.368 116.723 120.379 117.881 119.114 118.62C122.159 117.721 125.254 117.001 128.383 116.462C127.553 115.895 126.586 115.558 125.582 115.487C124.579 115.415 123.574 115.611 122.671 116.055Z" fill="#F2F2F2"/>
<path d="M128.383 116.462C128.507 116.549 128.628 116.64 128.744 116.738L128.4 116.459L128.383 116.462Z" fill="#F2F2F2"/>
<path d="M79.6298 129.487C79.129 129.708 78.7004 130.065 78.3929 130.517C74.1032 135.725 69.8134 140.934 65.5237 146.142C71.4722 141.646 76.4368 135.985 80.1127 129.506L79.6298 129.487Z" fill="#F2F2F2"/>
<path d="M35.8141 141.879C35.8157 141.888 35.8173 141.895 35.8188 141.904C35.8298 141.968 35.8407 142.026 35.8532 142.091V142.094C36.386 145.03 36.9715 147.917 37.6095 150.755L158.119 150.497C158.766 147.601 159.359 144.652 159.9 141.649C159.902 141.642 159.903 141.635 159.903 141.628L35.8141 141.879Z" fill="#E6E6E6"/>
<path d="M41.9609 109.639L50.3462 109.388C52.6111 114.357 49.8388 125.104 49.8388 125.104L46.7211 147.214C47.215 147.636 47.5886 148.181 47.8043 148.793C48.02 149.405 48.0701 150.064 47.9498 150.701C47.8294 151.339 47.5427 151.934 47.1185 152.426C46.6944 152.918 46.1477 153.29 45.5336 153.505C44.9195 153.719 44.2596 153.769 43.6204 153.648C42.9811 153.527 42.385 153.24 41.8922 152.817C41.3993 152.393 41.027 151.847 40.8128 151.234C40.5985 150.622 40.5499 149.963 40.6718 149.326L38.5831 125.075L41.9609 109.639Z" fill="#FFB8B8"/>
<path d="M41.5979 111.554L43.3563 99.4732L48.0217 95.0002C48.9408 94.1254 50.0868 93.5245 51.3304 93.2653C52.5739 93.0061 53.8653 93.099 55.0587 93.5335C56.6724 94.1334 57.9976 95.3221 58.7662 96.8593C59.5349 98.3965 59.6897 100.167 59.1994 101.814C57.7082 106.807 55.1809 112.946 51.6097 113.842L51.5735 113.852L41.5979 111.554Z" fill="#55ACEF"/>
<path d="M77.0553 248.245H81.6305L83.8067 230.643L77.0546 230.643L77.0553 248.245Z" fill="#FFB6B6"/>
<path d="M75.8901 246.755V252.668H90.6409V252.482C90.6406 250.963 90.0356 249.506 88.9589 248.432C87.8821 247.358 86.4218 246.755 84.8991 246.755L82.2021 244.715L82.0623 244.773L77.1776 246.755H75.8901Z" fill="#2F2E41"/>
<path d="M45.8537 248.245H50.4289L52.6051 230.643L45.853 230.643L45.8537 248.245Z" fill="#FFB6B6"/>
<path d="M44.6885 246.755V252.668H59.4393V252.482C59.439 250.963 58.834 249.506 57.7573 248.432C56.6805 247.358 55.2202 246.755 53.6975 246.755L51.0005 244.715L50.8607 244.773L45.976 246.755H44.6885Z" fill="#2F2E41"/>
<path d="M80.1191 140.151L48.5566 138.308C48.5566 138.308 42.0362 150.605 44.188 159.549C46.3399 168.492 47.0873 186.349 45.817 187.795C44.5467 189.241 44.188 186.736 45.6226 189.598C47.0733 192.492 46.6985 188.883 46.6985 191.387C46.6372 193.034 46.1466 194.637 45.2752 196.037V239.296L56.3587 238.585C56.3587 238.585 59.3525 237.126 56.7912 234.647C54.2299 232.168 52.5901 234.118 54.1273 230.997C55.6645 227.876 56.3817 231.453 55.6645 227.876C54.9472 224.298 63.9692 170.594 63.9692 170.594C63.9692 170.594 67.4296 181.693 68.9341 191.745C71.5245 209.051 72.9042 229.578 73.9367 230.651C75.5689 232.347 76.6448 230.201 75.5689 232.347C74.493 234.494 72.0842 234.035 73.6472 235.337C75.2103 236.64 75.2103 234.851 75.2103 236.64C75.2225 237.78 75.3847 238.913 75.6926 240.011L84.8444 239.398L84.3555 192.818L80.1191 140.151Z" fill="#2F2E41"/>
<path d="M71.1406 84.9242L61.0199 83.7228L58.4284 89.1487C58.4284 89.1487 44.2304 96.7933 44.7471 98.6581C45.2639 100.523 49.2089 108.393 48.133 110.539C47.0571 112.686 44.2558 113.4 46.3737 115.368C48.4917 117.336 49.9262 118.052 49.2089 119.84C48.4917 121.629 48.8503 128.068 48.8503 128.068C48.8503 128.068 44.6858 135.694 46.0508 137.247C47.4157 138.8 48.4917 137.277 47.4157 139.469C46.3398 141.662 38.0629 144.173 45.9671 144.349C53.8712 144.524 55.6644 139.516 61.7613 143.451C67.8582 147.386 79.922 143.704 79.922 143.704C79.922 143.704 80.6225 139.516 80.3372 137.012C80.0519 134.507 79.3844 135.751 79.8975 131.552C80.4105 127.353 81.2504 117.401 81.2504 117.401C81.2504 117.401 85.9088 96.7947 84.7142 94.7992C83.5196 92.8036 73.009 90.1627 73.009 90.1627L71.1406 84.9242Z" fill="#55ACEF"/>
<path d="M78.084 115.162L85.3315 110.948C89.7 114.235 92.4089 124.998 92.4089 124.998L100.253 145.91C100.889 146.046 101.478 146.346 101.961 146.782C102.444 147.217 102.803 147.771 103.002 148.389C103.202 149.007 103.235 149.666 103.098 150.3C102.961 150.935 102.658 151.522 102.221 152.003C101.785 152.484 101.228 152.841 100.609 153.04C99.9892 153.238 99.3283 153.27 98.6924 153.132C98.0565 152.995 97.4682 152.693 96.9866 152.256C96.505 151.82 96.1472 151.265 95.9492 150.646L82.505 130.333L78.084 115.162Z" fill="#FFB8B8"/>
<path d="M78.6817 117.018L74.4436 105.565L76.4016 99.4133C76.7904 98.2069 77.5098 97.1331 78.4783 96.3131C79.4469 95.4931 80.626 94.9597 81.8826 94.7731C85.4205 94.2719 85.7328 95.5097 86.4744 98.9965C87.5542 104.094 87.9977 106.752 88.5739 114.26L88.5465 114.285L78.6817 117.018Z" fill="#55ACEF"/>
<path d="M67.0877 81.7527C72.3626 81.7527 76.6388 77.4873 76.6388 72.2256C76.6388 66.964 72.3626 62.6986 67.0877 62.6986C61.8127 62.6986 57.5365 66.964 57.5365 72.2256C57.5365 77.4873 61.8127 81.7527 67.0877 81.7527Z" fill="#FFB8B8"/>
<path d="M65.0017 81.484C67.6837 80.9135 67.8011 80.1588 70.4831 79.5883C71.3371 79.4066 72.3296 79.108 72.6101 78.2831C72.8098 77.6957 72.5528 77.0468 72.1931 76.5407C71.7905 76.0683 71.4152 75.5735 71.069 75.0585C70.8422 74.6467 70.7194 74.186 70.7111 73.7162C70.7028 73.2464 70.8093 72.7816 71.0215 72.3621C71.2336 71.9426 71.545 71.5809 71.9287 71.3083C72.3124 71.0357 72.7568 70.8604 73.2237 70.7976C74.051 70.6862 74.8912 70.9335 75.7226 70.8575C76.8628 70.7533 78.6812 66.6116 77.9848 65.7051C77.3069 64.8227 76.1624 64.2701 75.8087 63.2159C75.5774 62.5264 75.744 61.7704 75.6557 61.0487C75.5247 59.9786 73.2614 62.8489 73.5855 61.8204C74.3807 59.2976 62.4682 58.4757 61.1107 61.7004C60.6033 62.9056 59.3402 63.0554 58.3426 63.903C57.6888 64.4586 56.1084 66.2545 55.8535 67.2434C55.6359 68.2448 55.6342 69.281 55.8485 70.2831C56.674 74.9744 58.1649 79.1588 62.4539 81.2523" fill="#2F2E41"/>
<path d="M21.7669 251.175C19.177 251.402 16.5688 251.05 14.1328 250.144C11.6969 249.237 9.49465 247.8 7.68701 245.936C5.32339 243.45 3.70137 240.25 2.13274 237.156C1.67612 236.256 1.20412 235.325 0.723934 234.432C0.188583 233.459 -0.0424622 232.349 0.060559 231.244C0.16358 230.139 0.595953 229.09 1.30197 228.232C1.97855 227.375 2.89706 226.739 3.93915 226.407C4.98124 226.075 6.09916 226.062 7.14885 226.369L7.37775 226.435L9.43782 234.453C9.74515 233.257 10.4048 230.562 10.8214 227.922L10.8564 227.701L11.0615 227.792C13.2126 228.742 15.2352 229.957 17.0817 231.411C20.3528 234.028 23.0133 237.324 24.8782 241.071C26.7432 244.817 27.7679 248.924 27.8811 253.105L27.8866 253.354L21.7669 251.175Z" fill="#F2F2F2"/>
<path d="M159.573 253.89L0.427022 254C0.313767 254 0.20516 253.955 0.125077 253.875C0.0449941 253.795 0 253.687 0 253.574C0 253.461 0.0449941 253.353 0.125077 253.273C0.20516 253.193 0.313767 253.148 0.427022 253.148L159.573 253.038C159.686 253.038 159.795 253.083 159.875 253.163C159.955 253.243 160 253.351 160 253.464C160 253.577 159.955 253.685 159.875 253.765C159.795 253.845 159.686 253.89 159.573 253.89Z" fill="#CACACA"/>
</g>
<defs>
<clipPath id="clip0_222_4">
<rect width="160" height="254" fill="white"/>
</clipPath>
</defs>
</svg>
